<svg id="svg" version="1.1" xmlns="http://www.w3.org/2000/svg" xmlns:xlink="http://www.w3.org/1999/xlink" width="400" height="400" viewBox="0, 0, 400,400"><g id="svgg"><path id="path0" d="M185.400 0.444 C 69.722 9.142,-14.120 113.476,2.238 228.375 C 19.760 351.458,145.572 428.886,263.600 389.225 C 355.166 358.456,411.441 267.016,397.765 171.225 C 382.989 67.733,289.576 -7.390,185.400 0.444 M208.200 6.810 C 327.737 12.396,413.038 121.883,389.189 239.118 C 373.554 315.980,310.374 377.161,233.200 390.172 C 100.941 412.469,-12.619 299.002,9.625 166.779 C 22.225 91.883,79.672 30.286,153.800 12.187 C 168.608 8.571,177.986 7.374,198.600 6.470 C 199.260 6.441,203.580 6.594,208.200 6.810 M185.600 8.443 C 79.045 16.854,0.064 109.498,8.823 215.800 C 16.207 305.413,85.844 378.488,174.800 389.973 C 301.029 406.270,407.330 298.967,389.947 172.800 C 376.266 73.508,285.560 0.553,185.600 8.443 M240.521 108.652 C 260.832 113.253,268.015 138.192,253.238 152.804 C 245.473 160.483,233.873 162.599,223.949 158.145 L 221.663 157.119 218.965 158.447 C 214.199 160.793,206.185 159.963,210.630 157.584 C 214.444 155.543,215.739 152.309,213.769 149.745 C 199.411 131.061,217.408 103.416,240.521 108.652 M229.513 113.021 C 215.368 116.450,208.430 133.726,216.337 145.829 C 225.732 160.208,246.317 159.505,254.298 144.532 C 263.047 128.115,247.706 108.611,229.513 113.021 M235.761 115.985 C 236.847 116.398,238.730 119.710,240.034 123.498 L 240.757 125.600 234.800 125.600 L 228.843 125.600 229.603 123.390 C 231.141 118.922,232.895 116.235,234.674 115.625 C 234.715 115.611,235.204 115.773,235.761 115.985 M228.400 117.413 C 228.400 117.531,227.975 118.476,227.455 119.513 C 226.936 120.551,226.201 122.345,225.823 123.500 L 225.136 125.600 221.968 125.600 C 218.322 125.600,218.279 125.530,220.331 122.936 C 222.602 120.063,228.400 116.095,228.400 117.413 M243.406 118.045 C 246.411 119.639,250.800 123.998,250.800 125.388 C 250.800 125.523,249.341 125.580,247.558 125.516 L 244.315 125.400 243.235 122.200 C 242.640 120.440,241.933 118.595,241.663 118.100 C 241.053 116.982,241.381 116.972,243.406 118.045 M205.042 125.100 C 204.599 126.561,204.062 129.492,203.797 131.900 L 203.521 134.400 179.761 134.400 L 156.000 134.400 156.000 159.400 L 156.000 184.400 195.400 184.400 L 234.800 184.400 234.800 174.800 L 234.800 165.200 236.900 165.186 C 238.055 165.178,240.170 164.915,241.600 164.600 C 243.030 164.285,244.327 164.022,244.482 164.014 C 244.637 164.006,244.817 169.005,244.882 175.122 L 245.000 186.244 248.300 190.373 L 251.600 194.502 251.600 197.064 C 251.600 201.253,249.887 203.838,246.488 204.782 C 244.017 205.469,145.417 205.314,143.474 204.620 C 140.473 203.551,138.824 200.953,138.809 197.274 C 138.798 194.713,139.015 194.280,142.266 190.350 C 146.300 185.474,146.000 188.026,146.000 158.559 C 146.000 139.420,146.127 132.265,146.486 131.046 C 147.088 129.009,150.437 125.542,152.400 124.923 C 155.087 124.076,205.301 124.245,205.042 125.100 M224.359 134.400 L 224.359 139.600 220.769 139.600 C 217.285 139.600,217.169 139.570,216.790 138.574 C 216.353 137.425,216.266 132.369,216.650 130.450 L 216.900 129.200 220.629 129.200 L 224.359 129.200 224.359 134.400 M241.683 131.900 C 241.792 133.385,241.773 135.680,241.641 137.000 L 241.400 139.400 234.754 139.509 L 228.108 139.619 227.858 138.109 C 227.539 136.178,227.538 132.626,227.857 130.700 L 228.105 129.200 234.794 129.200 L 241.484 129.200 241.683 131.900 M253.026 131.034 C 253.374 133.353,253.044 138.716,252.522 139.238 C 251.923 139.837,244.990 139.524,245.040 138.900 C 245.062 138.625,245.107 136.330,245.140 133.800 L 245.200 129.200 248.975 129.200 L 252.751 129.200 253.026 131.034 M224.952 143.257 C 225.009 143.336,225.607 144.930,226.281 146.800 C 226.954 148.670,227.642 150.533,227.811 150.940 C 228.106 151.654,228.067 151.656,226.758 150.989 C 223.451 149.303,218.800 144.837,218.800 143.346 C 218.800 143.025,224.720 142.939,224.952 143.257 M250.701 143.502 C 251.117 144.750,242.194 152.328,241.328 151.461 C 241.208 151.341,241.760 149.729,242.555 147.878 C 243.350 146.028,244.000 144.231,244.000 143.886 C 244.000 143.120,244.597 142.991,247.946 143.033 C 249.441 143.053,250.618 143.253,250.701 143.502 M240.235 144.300 C 240.096 144.905,239.169 147.065,238.174 149.100 L 236.365 152.800 234.618 152.800 L 232.871 152.800 231.064 149.100 C 230.070 147.065,229.135 144.905,228.985 144.300 L 228.713 143.200 234.600 143.200 L 240.487 143.200 240.235 144.300 M184.800 195.578 C 184.800 196.005,185.234 196.860,185.765 197.478 L 186.729 198.600 194.506 198.730 C 204.046 198.889,206.000 198.285,206.000 195.174 C 206.000 194.951,201.708 194.800,195.400 194.800 C 185.168 194.800,184.800 194.827,184.800 195.578 M83.397 233.100 C 83.395 239.535,83.425 244.800,83.463 244.800 C 83.502 244.800,84.314 244.469,85.267 244.064 C 93.513 240.564,103.977 240.483,108.499 243.884 C 113.562 247.694,114.392 252.111,114.397 275.300 L 114.400 290.800 110.600 290.800 L 106.800 290.800 106.789 277.700 C 106.767 251.297,105.998 248.876,97.510 248.470 C 92.978 248.253,83.698 250.079,83.550 251.217 C 83.523 251.428,83.455 260.240,83.400 270.800 C 83.345 281.360,83.278 290.180,83.250 290.400 C 83.221 290.635,81.633 290.800,79.400 290.800 L 75.600 290.800 75.600 255.986 L 75.600 221.171 79.500 221.286 L 83.400 221.400 83.397 233.100 M151.266 241.779 C 160.666 243.771,161.982 247.028,161.993 268.326 C 162.001 284.429,161.941 284.173,165.937 285.189 C 167.246 285.521,167.616 285.782,167.437 286.248 C 167.307 286.587,167.200 287.931,167.200 289.233 L 167.200 291.600 165.500 291.594 C 162.823 291.584,159.341 290.607,157.167 289.256 L 155.171 288.015 152.286 288.982 C 134.586 294.911,124.773 290.729,124.644 277.200 C 124.539 266.194,128.127 263.488,145.000 261.846 L 153.800 260.989 153.800 256.723 C 153.800 252.002,153.436 251.092,150.843 249.326 C 148.575 247.782,146.311 247.723,133.056 248.862 C 127.070 249.377,127.215 249.454,127.206 245.748 L 127.200 243.295 131.553 242.625 C 140.924 241.182,147.182 240.913,151.266 241.779 M201.200 245.155 L 201.200 249.111 199.700 249.391 C 197.030 249.889,190.731 252.047,187.121 253.701 L 183.600 255.314 183.600 273.057 L 183.600 290.800 179.800 290.800 L 176.000 290.800 176.000 266.600 L 176.000 242.400 179.800 242.400 L 183.600 242.400 183.600 245.400 C 183.600 247.050,183.668 248.400,183.752 248.400 C 183.835 248.400,184.922 247.787,186.167 247.037 C 190.233 244.588,198.330 241.351,200.700 241.226 C 201.068 241.207,201.200 242.244,201.200 245.155 M234.400 245.108 L 234.400 249.017 230.886 249.934 C 228.954 250.438,225.129 251.785,222.386 252.927 L 217.400 255.003 217.200 272.802 L 217.000 290.600 213.200 290.600 L 209.400 290.600 209.297 266.500 L 209.194 242.400 213.180 242.400 L 217.166 242.400 217.283 245.360 L 217.400 248.319 220.390 246.581 C 224.159 244.390,231.737 241.392,233.900 241.236 C 234.268 241.209,234.400 242.229,234.400 245.108 M266.458 241.777 C 275.911 243.781,277.192 246.990,277.197 268.669 L 277.200 282.339 278.194 283.520 C 278.829 284.274,279.858 284.871,281.037 285.168 C 282.664 285.577,282.856 285.738,282.648 286.516 C 282.518 287.002,282.408 288.371,282.405 289.558 L 282.400 291.716 279.697 291.489 C 276.452 291.217,274.100 290.455,271.988 288.992 C 270.436 287.916,270.403 287.912,268.769 288.566 C 251.444 295.498,239.838 290.780,239.823 276.800 C 239.812 266.193,243.525 263.468,260.200 261.847 L 269.000 260.991 269.000 256.723 C 269.000 247.875,266.633 247.101,245.560 249.058 C 242.526 249.340,242.416 249.211,242.405 245.348 L 242.400 243.295 246.753 242.625 C 256.118 241.183,262.382 240.913,266.458 241.777 M324.398 245.700 L 324.395 249.000 311.208 266.200 L 298.021 283.400 311.211 283.505 L 324.400 283.611 324.400 287.205 L 324.400 290.800 306.400 290.800 L 288.400 290.800 288.428 287.100 L 288.457 283.400 301.541 266.400 L 314.626 249.400 301.513 249.295 L 288.400 249.189 288.400 245.795 L 288.400 242.400 306.400 242.400 L 324.400 242.400 324.398 245.700 M145.067 267.631 C 134.727 268.689,132.903 269.837,132.499 275.538 C 131.830 284.997,137.455 287.153,151.871 282.962 L 154.000 282.343 154.000 274.572 L 154.000 266.800 153.100 266.850 C 152.605 266.878,148.990 267.229,145.067 267.631 M260.518 267.615 C 249.594 268.744,247.595 270.142,247.602 276.646 C 247.612 285.163,253.193 287.004,266.900 283.013 L 269.200 282.343 269.200 274.572 L 269.200 266.800 268.300 266.852 C 267.805 266.880,264.303 267.224,260.518 267.615 " stroke="none" fill="#fc6c6b" fill-rule="evenodd"></path><path id="path1" d="M230.703 108.387 C 211.613 111.867,202.460 134.153,213.796 149.551 C 215.176 151.427,215.427 152.018,215.105 152.636 C 214.025 154.703,212.586 156.435,211.168 157.374 C 206.263 160.620,214.912 161.012,220.038 157.776 L 221.553 156.820 224.111 158.017 C 241.037 165.938,260.754 153.265,260.856 134.400 C 260.942 118.426,246.059 105.587,230.703 108.387 M241.530 113.233 C 255.110 117.623,261.244 134.529,253.475 146.152 C 242.545 162.507,217.907 158.217,213.420 139.179 C 209.568 122.836,225.564 108.071,241.530 113.233 M231.426 119.700 C 230.431 121.735,229.504 123.895,229.365 124.500 L 229.113 125.600 234.757 125.600 C 238.164 125.600,240.400 125.445,240.400 125.209 C 240.400 124.436,238.418 119.572,237.382 117.805 C 236.417 116.159,236.188 116.000,234.779 116.000 L 233.235 116.000 231.426 119.700 M226.104 118.300 C 223.293 119.841,218.800 124.130,218.800 125.272 C 218.800 125.452,220.207 125.600,221.927 125.600 L 225.054 125.600 225.775 123.300 C 226.172 122.035,226.928 120.145,227.455 119.100 C 227.982 118.055,228.345 117.200,228.262 117.200 C 228.179 117.200,227.208 117.695,226.104 118.300 M241.600 117.608 C 241.600 117.841,241.943 118.705,242.363 119.528 C 242.783 120.351,243.426 122.054,243.792 123.312 L 244.457 125.600 247.651 125.600 L 250.845 125.600 250.123 124.369 C 248.543 121.679,241.600 116.171,241.600 117.608 M152.889 124.988 C 150.539 125.722,148.626 127.274,147.309 129.514 L 146.200 131.400 145.989 158.800 C 145.873 173.870,145.738 186.239,145.689 186.287 C 145.640 186.334,144.115 188.221,142.300 190.479 L 139.000 194.586 139.048 197.462 C 139.107 200.928,140.083 202.818,142.433 204.017 C 144.917 205.284,246.920 205.053,248.671 203.777 C 250.371 202.536,251.600 199.816,251.600 197.289 C 251.600 194.720,251.383 194.280,248.198 190.412 C 244.594 186.036,244.800 186.984,244.800 174.799 C 244.800 164.649,244.755 163.960,244.100 164.158 C 242.639 164.601,239.708 165.138,237.300 165.403 L 234.800 165.679 234.800 175.241 L 234.800 184.804 195.300 184.702 L 155.800 184.600 155.697 159.500 L 155.594 134.400 179.542 134.400 L 203.490 134.400 203.754 131.500 C 203.899 129.905,204.267 127.655,204.572 126.500 L 205.128 124.400 179.864 124.427 C 159.967 124.448,154.236 124.567,152.889 124.988 M216.887 129.900 C 216.729 130.285,216.600 132.220,216.600 134.200 C 216.600 139.325,216.498 139.200,220.687 139.200 L 224.200 139.199 224.210 134.200 L 224.219 129.200 220.697 129.200 C 217.719 129.200,217.131 129.308,216.887 129.900 M228.152 129.678 C 227.989 129.941,227.856 132.066,227.856 134.400 C 227.856 139.996,227.329 139.600,234.781 139.600 C 242.183 139.600,241.600 140.045,241.600 134.400 C 241.600 128.755,242.183 129.200,234.781 129.200 C 230.299 129.200,228.361 129.340,228.152 129.678 M245.200 134.200 L 245.200 139.200 248.813 139.200 C 253.116 139.200,253.000 139.338,253.000 134.200 C 253.000 129.062,253.116 129.200,248.813 129.200 L 245.200 129.200 245.200 134.200 M219.240 144.075 C 220.487 146.405,226.142 151.176,227.682 151.196 C 227.836 151.198,227.528 150.261,226.996 149.113 C 226.464 147.965,225.809 146.165,225.539 145.113 L 225.049 143.200 221.910 143.200 C 218.806 143.200,218.777 143.209,219.240 144.075 M229.003 144.100 C 229.145 144.595,230.102 146.710,231.130 148.800 L 233.000 152.600 234.600 152.600 L 236.200 152.600 238.077 148.800 C 239.110 146.710,240.067 144.595,240.204 144.100 L 240.454 143.200 234.600 143.200 L 228.746 143.200 229.003 144.100 M244.153 143.900 C 243.937 144.583,241.790 150.071,241.322 151.135 C 240.824 152.271,245.448 149.416,247.611 147.253 C 251.442 143.422,251.442 143.200,247.602 143.200 C 244.880 143.200,244.340 143.310,244.153 143.900 M206.000 195.431 C 206.000 196.037,205.518 196.943,204.831 197.631 L 203.662 198.800 195.611 198.800 C 185.847 198.800,184.800 198.468,184.800 195.367 L 184.800 194.400 195.400 194.400 L 206.000 194.400 206.000 195.431 M76.000 256.000 L 76.000 290.400 79.600 290.400 L 83.200 290.400 83.200 270.632 L 83.200 250.864 85.100 250.242 C 91.836 248.034,99.083 247.605,102.012 249.241 C 106.226 251.594,106.473 252.889,106.692 273.700 L 106.868 290.400 110.676 290.400 L 114.484 290.400 114.273 273.300 C 114.018 252.629,113.520 249.327,110.079 245.519 C 105.826 240.811,96.769 240.150,86.357 243.788 C 84.764 244.345,83.402 244.800,83.330 244.800 C 83.259 244.800,83.200 239.580,83.200 233.200 L 83.200 221.600 79.600 221.600 L 76.000 221.600 76.000 256.000 M140.800 241.698 C 138.270 241.862,134.220 242.317,131.800 242.709 L 127.400 243.422 127.515 246.193 C 127.579 247.717,127.675 249.008,127.730 249.063 C 127.784 249.117,130.972 248.886,134.814 248.549 C 151.022 247.128,153.802 248.363,154.306 257.210 C 154.549 261.472,155.373 260.983,146.600 261.786 C 129.826 263.322,125.726 265.608,124.874 273.899 C 123.239 289.807,132.435 294.885,152.099 288.934 C 155.270 287.974,155.664 287.932,156.299 288.491 C 157.700 289.722,160.396 290.792,163.189 291.225 C 167.101 291.832,167.200 291.765,167.200 288.506 L 167.200 285.788 165.198 285.077 C 161.968 283.929,162.084 284.542,161.881 267.600 C 161.719 254.001,161.628 252.370,160.904 250.137 C 158.589 242.985,153.553 240.872,140.800 241.698 M197.800 242.065 C 194.887 242.871,186.842 246.546,184.784 248.011 L 183.600 248.854 183.600 245.627 L 183.600 242.400 179.800 242.400 L 176.000 242.400 176.000 266.400 L 176.000 290.400 179.800 290.400 L 183.600 290.400 183.600 272.777 L 183.600 255.154 186.510 253.828 C 190.328 252.089,194.730 250.500,198.200 249.611 L 201.000 248.893 201.116 245.383 C 201.259 241.101,201.265 241.107,197.800 242.065 M231.600 241.978 C 228.423 242.810,222.176 245.536,219.200 247.390 L 217.000 248.760 216.884 245.580 L 216.768 242.400 213.184 242.400 L 209.600 242.400 209.600 266.400 L 209.600 290.400 213.200 290.400 L 216.800 290.400 216.800 272.858 L 216.800 255.316 220.300 253.698 C 224.019 251.979,230.069 249.848,232.561 249.381 C 234.419 249.032,234.460 248.923,234.317 244.717 L 234.200 241.297 231.600 241.978 M256.178 241.677 C 252.089 241.933,244.778 242.920,243.072 243.447 C 242.455 243.637,242.365 248.337,242.964 249.081 C 243.000 249.126,245.903 248.906,249.415 248.593 C 266.821 247.040,269.600 248.384,269.600 258.356 L 269.600 261.072 261.900 261.771 C 243.945 263.402,240.416 265.709,240.061 276.051 C 239.566 290.459,248.383 294.654,267.200 288.965 L 270.600 287.936 272.948 289.351 C 275.245 290.735,277.389 291.300,280.600 291.367 L 282.200 291.400 282.316 288.599 L 282.431 285.799 280.413 285.082 C 277.162 283.928,277.281 284.555,277.101 267.600 C 276.840 243.148,274.716 240.517,256.178 241.677 M288.400 245.795 L 288.400 249.189 301.581 249.295 L 314.763 249.400 301.582 266.600 L 288.400 283.800 288.400 287.100 L 288.400 290.400 306.200 290.400 L 324.000 290.400 324.000 287.000 L 324.000 283.600 311.000 283.600 C 303.850 283.600,298.000 283.517,298.000 283.415 C 298.000 283.313,303.845 275.618,310.989 266.315 L 323.977 249.400 323.989 245.900 L 324.000 242.400 306.200 242.400 L 288.400 242.400 288.400 245.795 M154.400 274.569 L 154.400 282.338 153.100 282.759 C 146.001 285.058,138.689 285.731,136.018 284.333 C 130.499 281.444,131.160 270.871,137.000 268.622 C 137.866 268.289,149.922 266.926,152.700 266.848 L 154.400 266.800 154.400 274.569 M269.600 274.569 L 269.600 282.338 268.300 282.759 C 254.277 287.299,248.010 285.549,247.677 277.000 C 247.386 269.525,251.816 267.302,267.900 266.848 L 269.600 266.800 269.600 274.569 " stroke="none" fill="#6d3444" fill-rule="evenodd"></path><path id="path2" d="M253.000 115.600 C 253.859 116.480,254.652 117.200,254.762 117.200 C 254.872 117.200,254.259 116.480,253.400 115.600 C 252.541 114.720,251.748 114.000,251.638 114.000 C 251.528 114.000,252.141 114.720,253.000 115.600 M247.600 121.400 C 248.346 122.170,249.047 122.800,249.157 122.800 C 249.267 122.800,248.746 122.170,248.000 121.400 C 247.254 120.630,246.553 120.000,246.443 120.000 C 246.333 120.000,246.854 120.630,247.600 121.400 M224.093 132.800 C 224.093 133.570,224.175 133.885,224.276 133.500 C 224.376 133.115,224.376 132.485,224.276 132.100 C 224.175 131.715,224.093 132.030,224.093 132.800 M155.795 159.500 L 155.800 184.600 195.300 184.603 L 234.800 184.606 195.403 184.501 L 156.006 184.396 155.898 159.398 L 155.791 134.400 155.795 159.500 M224.101 136.200 C 224.105 137.080,224.187 137.393,224.283 136.895 C 224.379 136.398,224.375 135.678,224.275 135.295 C 224.175 134.913,224.096 135.320,224.101 136.200 M244.902 138.800 C 245.081 139.462,251.834 139.924,252.445 139.316 C 252.620 139.142,251.126 139.058,249.124 139.130 C 246.437 139.226,245.387 139.121,245.112 138.730 C 244.817 138.311,244.773 138.326,244.902 138.800 M217.155 139.316 C 217.330 139.491,219.077 139.579,221.036 139.514 L 224.600 139.394 220.718 139.197 C 218.583 139.089,216.980 139.142,217.155 139.316 M235.300 165.476 C 235.685 165.576,236.315 165.576,236.700 165.476 C 237.085 165.375,236.770 165.293,236.000 165.293 C 235.230 165.293,234.915 165.375,235.300 165.476 M190.124 194.699 C 193.162 194.767,198.022 194.767,200.924 194.699 C 203.826 194.631,201.340 194.575,195.400 194.575 C 189.460 194.575,187.086 194.631,190.124 194.699 M169.900 205.100 C 183.815 205.158,206.585 205.158,220.500 205.100 C 234.415 205.042,223.030 204.994,195.200 204.994 C 167.370 204.994,155.985 205.042,169.900 205.100 M75.600 256.000 L 75.600 290.800 79.500 290.717 L 83.400 290.634 79.700 290.502 L 76.000 290.370 76.000 255.958 L 76.000 221.545 79.763 221.673 C 81.833 221.743,83.442 221.665,83.339 221.500 C 83.237 221.335,81.453 221.200,79.376 221.200 L 75.600 221.200 75.600 256.000 M143.105 241.483 C 143.602 241.579,144.322 241.575,144.705 241.475 C 145.087 241.375,144.680 241.296,143.800 241.301 C 142.920 241.305,142.607 241.387,143.105 241.483 M147.105 241.483 C 147.602 241.579,148.322 241.575,148.705 241.475 C 149.087 241.375,148.680 241.296,147.800 241.301 C 146.920 241.305,146.607 241.387,147.105 241.483 M258.305 241.483 C 258.802 241.579,259.522 241.575,259.905 241.475 C 260.287 241.375,259.880 241.296,259.000 241.301 C 258.120 241.305,257.807 241.387,258.305 241.483 M262.305 241.483 C 262.802 241.579,263.522 241.575,263.905 241.475 C 264.287 241.375,263.880 241.296,263.000 241.301 C 262.120 241.305,261.807 241.387,262.305 241.483 M209.395 266.600 L 209.400 290.600 213.200 290.600 L 217.000 290.600 217.006 272.800 L 217.013 255.000 216.902 272.700 L 216.792 290.400 213.199 290.400 L 209.606 290.400 209.498 266.500 L 209.391 242.600 209.395 266.600 M216.940 245.600 C 216.940 247.470,217.009 248.235,217.093 247.300 C 217.177 246.365,217.177 244.835,217.093 243.900 C 217.009 242.965,216.940 243.730,216.940 245.600 M324.142 245.800 C 324.141 247.780,324.208 248.640,324.292 247.712 C 324.376 246.784,324.377 245.164,324.295 244.112 C 324.212 243.060,324.143 243.820,324.142 245.800 M139.700 248.276 C 140.085 248.376,140.715 248.376,141.100 248.276 C 141.485 248.175,141.170 248.093,140.400 248.093 C 139.630 248.093,139.315 248.175,139.700 248.276 M254.900 248.276 C 255.285 248.376,255.915 248.376,256.300 248.276 C 256.685 248.175,256.370 248.093,255.600 248.093 C 254.830 248.093,254.515 248.175,254.900 248.276 M161.693 255.200 C 161.693 255.970,161.775 256.285,161.876 255.900 C 161.976 255.515,161.976 254.885,161.876 254.500 C 161.775 254.115,161.693 254.430,161.693 255.200 M269.130 258.001 C 269.059 259.761,269.135 261.201,269.300 261.201 C 269.465 261.200,269.600 259.760,269.600 258.000 C 269.600 253.866,269.299 253.866,269.130 258.001 M153.996 258.082 C 153.888 259.777,153.944 261.019,154.120 260.842 C 154.295 260.665,154.384 259.279,154.316 257.760 L 154.192 255.000 153.996 258.082 M106.493 261.200 C 106.493 261.970,106.575 262.285,106.676 261.900 C 106.776 261.515,106.776 260.885,106.676 260.500 C 106.575 260.115,106.493 260.430,106.493 261.200 M154.168 274.600 C 154.168 279.000,154.226 280.855,154.298 278.721 C 154.370 276.588,154.370 272.988,154.299 270.721 C 154.227 268.455,154.168 270.200,154.168 274.600 M269.368 274.600 C 269.368 279.000,269.426 280.855,269.498 278.721 C 269.570 276.588,269.570 272.988,269.499 270.721 C 269.427 268.455,269.368 270.200,269.368 274.600 M239.728 276.800 C 239.728 278.230,239.801 278.815,239.889 278.100 C 239.978 277.385,239.978 276.215,239.889 275.500 C 239.801 274.785,239.728 275.370,239.728 276.800 M124.493 278.000 C 124.493 278.770,124.575 279.085,124.676 278.700 C 124.776 278.315,124.776 277.685,124.676 277.300 C 124.575 276.915,124.493 277.230,124.493 278.000 M324.000 286.996 L 324.000 290.392 306.100 290.500 L 288.200 290.608 306.300 290.704 L 324.400 290.800 324.400 287.200 C 324.400 285.220,324.310 283.600,324.200 283.600 C 324.090 283.600,324.000 285.128,324.000 286.996 M108.713 290.695 C 109.876 290.776,111.676 290.776,112.713 290.693 C 113.751 290.611,112.800 290.545,110.600 290.546 C 108.400 290.547,107.551 290.614,108.713 290.695 M177.913 290.695 C 179.076 290.776,180.876 290.776,181.913 290.693 C 182.951 290.611,182.000 290.545,179.800 290.546 C 177.600 290.547,176.751 290.614,177.913 290.695 " stroke="none" fill="#d45c5c" fill-rule="evenodd"></path><path id="path3" d="" stroke="none" fill="#ec7058" fill-rule="evenodd"></path><path id="path4" d="" stroke="none" fill="#ec7058" fill-rule="evenodd"></path></g></svg>